<?xml version="1.0" encoding="UTF-8" standalone="no"?>
<svg
   width="131.06514mm"
   height="18.295944mm"
   viewBox="0 0 131.06515 18.295944"
   version="1.1"
   id="embeddings-logo"
   xmlns="http://www.w3.org/2000/svg"
   xmlns:svg="http://www.w3.org/2000/svg">
  <g
     transform="translate(6.0559385,-63.663189) scale(1.118034,0.89442719)"
     fill="#000000">
    <path d="m 0.13754299,87.840026 q -1.76106849,0 -3.00284749,-0.745068 -1.241779,-0.767645 -1.8965353,-2.144891 -0.6547562,-1.377246 -0.6547562,-3.228625 0,-1.896535 0.6547562,-3.273781 0.6547563,-1.399824 1.8739575,-2.167469 1.241779,-0.767645 2.95769189,-0.767645 1.87395751,0 3.09315871,0.857956 1.241779,0.835379 1.7836463,2.325513 0.5418672,1.490135 0.4064004,3.431826 h -8.4892531 q 0.022578,1.964269 0.903112,2.957692 0.903112,0.970846 2.37066909,0.970846 1.19662341,0 1.96426871,-0.564446 0.7676452,-0.587022 0.9708454,-1.512712 H 5.2852816 Q 5.127237,85.175845 4.4273251,86.05638 3.7274133,86.914336 2.6211011,87.38847 1.5147888,87.840026 0.13754299,87.840026 Z M 0.06980959,77.296193 q -1.37724589,0 -2.21262449,0.835378 -0.8353786,0.835379 -0.9708454,2.415825 H 3.0726571 Q 3.0275015,78.854061 2.1921229,78.086416 1.3567442,77.296193 0.06980959,77.296193 Z M 6.2039126,87.636826 V 75.693169 h 2.2126245 l 0.090311,2.370669 h 0.1354668 q 0.4967116,-1.264357 1.5578679,-1.896535 1.083735,-0.654756 2.393247,-0.654756 1.309513,0 2.348092,0.654756 1.061156,0.632178 1.512712,2.144891 h 0.180623 q 0.496711,-1.399824 1.625601,-2.099736 1.12889,-0.699911 2.57387,-0.699911 1.174045,0 2.099735,0.496711 0.948268,0.496712 1.490135,1.603024 0.541867,1.106312 0.541867,2.935114 v 7.08943 H 22.663129 V 81.02153 q 0,-1.828802 -0.654756,-2.709336 -0.654756,-0.880534 -2.05458,-0.880534 -0.970845,0 -1.693335,0.496711 -0.722489,0.496712 -1.12889,1.33209 -0.383822,0.835379 -0.383822,1.85138 v 6.524985 H 14.422232 V 81.02153 q 0,-1.828802 -0.654756,-2.709336 -0.654756,-0.880534 -2.032002,-0.880534 -0.993423,0 -1.715913,0.496711 -0.7224897,0.496712 -1.1288901,1.33209 -0.3838226,0.835379 -0.3838226,1.85138 v 6.524985 z m 26.8379354,0.2032 q -1.512713,0 -2.573869,-0.699912 -1.061157,-0.699912 -1.490135,-1.85138 h -0.135467 l -0.09031,2.348092 H 26.516864 V 71.177609 h 2.325513 v 6.863651 h 0.135467 q 0.428978,-1.151468 1.490135,-1.851379 1.061156,-0.699912 2.573869,-0.699912 2.190047,0 3.522137,1.603024 1.354668,1.580446 1.354668,4.583293 0,2.98027 -1.354668,4.583294 -1.33209,1.580446 -3.522137,1.580446 z m -0.812801,-1.919113 q 1.490135,0 2.393247,-1.061157 0.903112,-1.083734 0.903112,-3.18347 0,-2.122313 -0.903112,-3.18347 -0.903112,-1.083734 -2.393247,-1.083734 -1.106312,0 -1.873957,0.519289 -0.745068,0.496712 -1.12889,1.33209 -0.361245,0.812801 -0.361245,1.738491 v 1.33209 q 0,0.92569 0.361245,1.761069 0.383822,0.812801 1.12889,1.33209 0.767645,0.496712 1.873957,0.496712 z m 11.507648,1.919113 q -1.761069,0 -3.002848,-0.745068 -1.241779,-0.767645 -1.896535,-2.144891 -0.654756,-1.377246 -0.654756,-3.228625 0,-1.896535 0.654756,-3.273781 0.654756,-1.399824 1.873957,-2.167469 1.241779,-0.767645 2.957692,-0.767645 1.873958,0 3.093159,0.857956 1.241779,0.835379 1.783646,2.325513 0.541867,1.490135 0.406401,3.431826 h -8.489254 q 0.02258,1.964269 0.903113,2.957692 0.903112,0.970846 2.370669,0.970846 1.196623,0 1.964268,-0.564446 0.767645,-0.587022 0.970846,-1.512712 h 2.212624 q -0.158044,1.196623 -0.857956,2.077158 -0.699912,0.857956 -1.806224,1.33209 -1.106313,0.451556 -2.483558,0.451556 z m -0.06773,-10.543833 q -1.377246,0 -2.212624,0.835378 -0.835379,0.835379 -0.970846,2.415825 h 6.186318 q -0.04516,-1.693335 -0.880535,-2.46098 -0.835378,-0.790223 -2.122313,-0.790223 z m 10.423893,10.543833 q -2.190047,0 -3.544715,-1.580446 -1.33209,-1.603024 -1.33209,-4.605872 0,-2.980269 1.33209,-4.560715 1.354668,-1.603024 3.544715,-1.603024 1.490134,0 2.551291,0.699912 1.083735,0.699911 1.512713,1.851379 h 0.135467 v -6.863651 h 2.325513 v 16.459217 h -2.235202 l -0.09031,-2.37067 h -0.135467 q -0.428978,1.151468 -1.512713,1.873958 -1.061157,0.699912 -2.551291,0.699912 z m 0.8128,-1.919113 q 1.106313,0 1.85138,-0.51929 0.745068,-0.519289 1.12889,-1.33209 0.383823,-0.812801 0.383823,-1.738491 v -1.354668 q 0,-0.925689 -0.383823,-1.73849 -0.383822,-0.812801 -1.12889,-1.332091 -0.745067,-0.519289 -1.85138,-0.519289 -1.490134,0 -2.393246,1.083734 -0.903112,1.083735 -0.903112,3.18347 0,2.099736 0.903112,3.18347 0.903112,1.083735 2.393246,1.083735 z m 11.439908,1.919113 q -2.190047,0 -3.544715,-1.580446 -1.33209,-1.603024 -1.33209,-4.605872 0,-2.980269 1.33209,-4.560715 1.354668,-1.603024 3.544715,-1.603024 1.490135,0 2.551292,0.699912 1.083734,0.699911 1.512712,1.851379 h 0.135467 v -6.863651 h 2.325513 v 16.459217 h -2.235202 l -0.09031,-2.37067 h -0.135467 q -0.428978,1.151468 -1.512712,1.873958 -1.061157,0.699912 -2.551292,0.699912 z m 0.812801,-1.919113 q 1.106312,0 1.85138,-0.51929 0.745067,-0.519289 1.12889,-1.33209 0.383822,-0.812801 0.383822,-1.738491 v -1.354668 q 0,-0.925689 -0.383822,-1.73849 -0.383823,-0.812801 -1.12889,-1.332091 -0.745068,-0.519289 -1.85138,-0.519289 -1.490135,0 -2.393247,1.083734 -0.903112,1.083735 -0.903112,3.18347 0,2.099736 0.903112,3.18347 0.903112,1.083735 2.393247,1.083735 z m 7.375911,-12.056546 v -2.686758 h 2.325513 v 2.686758 z m 0,13.772459 V 75.693169 h 2.325513 v 11.943657 z m 3.966644,0 V 75.693169 h 2.212625 l 0.09031,2.370669 h 0.135467 q 0.519289,-1.264357 1.603024,-1.896535 1.106312,-0.654756 2.438402,-0.654756 1.219201,0 2.190047,0.496711 0.970845,0.496712 1.512712,1.603024 0.564445,1.106312 0.564445,2.935114 v 7.08943 H 86.922438 V 81.02153 q 0,-1.828802 -0.677334,-2.709336 -0.677334,-0.880534 -2.099736,-0.880534 -1.038578,0 -1.783646,0.496711 -0.745067,0.496712 -1.151468,1.33209 -0.4064,0.835379 -0.4064,1.85138 v 6.524985 z m 17.016605,3.99627 q -2.144892,0 -3.454404,-0.92569 -1.309512,-0.903112 -1.490135,-2.506135 h 2.25778 q 0.135467,0.790223 0.857957,1.241779 0.745067,0.474133 1.873957,0.474133 1.603024,0 2.438403,-0.699911 0.857956,-0.699912 0.857956,-2.370669 v -2.325514 h -0.158045 q -0.4064,1.083734 -1.444979,1.761069 -1.038579,0.654756 -2.46098,0.654756 -2.190047,0 -3.499559,-1.490135 -1.309513,-1.490135 -1.309513,-4.222049 0,-2.731914 1.332091,-4.222049 1.33209,-1.512712 3.499559,-1.512712 1.422401,0 2.438402,0.677334 1.038579,0.654756 1.444979,1.73849 h 0.158045 l 0.04516,-2.212624 h 2.257777 v 10.837344 q 0,1.873958 -0.72249,2.98027 -0.699909,1.12889 -1.986843,1.625602 -1.264357,0.496711 -2.935114,0.496711 z m 0.06773,-6.502406 q 1.038579,0 1.761068,-0.474134 0.72249,-0.474134 1.106313,-1.196624 0.383822,-0.745067 0.4064,-1.53529 l -0.02258,-1.444979 q -0.02258,-0.767646 -0.383822,-1.490135 -0.361245,-0.745068 -1.083735,-1.196624 -0.722489,-0.474133 -1.761068,-0.474133 -1.490135,0 -2.370669,1.016001 -0.857957,1.016001 -0.857957,2.889958 0,1.896535 0.880534,2.912536 0.880535,0.993424 2.325514,0.993424 z m 11.304414,2.731914 q -2.34809,0 -3.68018,-1.083735 -1.33209,-1.106312 -1.33209,-2.889958 h 2.30294 q 0,1.174045 0.76764,1.73849 0.76765,0.541868 1.98685,0.541868 1.24178,0 1.87396,-0.451557 0.65475,-0.474133 0.65475,-1.309512 0,-0.92569 -0.65475,-1.286935 -0.63218,-0.361244 -2.12232,-0.587022 -2.25778,-0.31609 -3.38667,-1.038579 -1.10631,-0.745068 -1.10631,-2.415825 0,-1.625602 1.28693,-2.619025 1.30952,-0.993423 3.43183,-0.993423 2.14489,0 3.38667,1.038579 1.26436,1.016001 1.28693,2.709336 h -2.28035 q -0.0226,-1.083735 -0.67734,-1.557868 -0.65475,-0.474134 -1.76107,-0.474134 -1.10631,0 -1.73849,0.451556 -0.6096,0.451556 -0.6096,1.219201 0,0.880534 0.69991,1.241779 0.72249,0.361245 2.30294,0.587023 2.07716,0.293511 3.18347,1.038579 1.10631,0.722489 1.10631,2.483558 0,1.761068 -1.35467,2.709336 -1.35466,0.948268 -3.56729,0.948268 z" />
  </g>
</svg> 