<?xml version="1.0" encoding="UTF-8" standalone="no"?>
<svg
   width="32mm"
   height="32mm"
   viewBox="0 0 32 32"
   version="1.1"
   id="embeddings-logomark"
   sodipodi:docname="embeddings-logomark.svg"
   inkscape:export-filename="../../embeddings-logo.png"
   inkscape:export-xdpi="406.39999"
   inkscape:export-ydpi="406.39999"
   inkscape:version="1.4 (e7c3feb1, 2024-10-09)"
   xmlns:inkscape="http://www.inkscape.org/namespaces/inkscape"
   xmlns:sodipodi="http://sodipodi.sourceforge.net/DTD/sodipodi-0.dtd"
   xmlns="http://www.w3.org/2000/svg"
   xmlns:svg="http://www.w3.org/2000/svg">
  <defs
     id="defs1" />
  <sodipodi:namedview
     id="namedview1"
     pagecolor="#ffffff"
     bordercolor="#111111"
     borderopacity="1"
     inkscape:showpageshadow="0"
     inkscape:pageopacity="0"
     inkscape:pagecheckerboard="1"
     inkscape:deskcolor="#d1d1d1"
     inkscape:document-units="mm"
     inkscape:zoom="0.21497396"
     inkscape:cx="60.472441"
     inkscape:cy="58.146578"
     inkscape:window-width="1728"
     inkscape:window-height="1002"
     inkscape:window-x="2448"
     inkscape:window-y="1478"
     inkscape:window-maximized="1"
     inkscape:current-layer="embeddings-logomark" />
  <path
     d="M3.25 26v.75H7c1.305 0 2.384-.21 3.346-.627.96-.415 1.763-1.02 2.536-1.752.695-.657 1.39-1.443 2.152-2.306l.233-.263c.864-.975 1.843-2.068 3.071-3.266 1.209-1.18 2.881-1.786 4.621-1.786h5.791V5.25H25c-1.305 0-2.384.21-3.346.627-.96.415-1.763 1.02-2.536 1.751-.695.658-1.39 1.444-2.152 2.307l-.233.263c-.864.975-1.843 2.068-3.071 3.266-1.209 1.18-2.881 1.786-4.621 1.786H3.25V26Z"
     fill="none"
     stroke="#000000"
     stroke-width="1.5"
     id="path1" />
</svg>
